<?xml version="1.0" encoding="UTF-8"?>
<svg version="1.1" xmlns="http://www.w3.org/2000/svg" width="331" height="132">
<path d="M0 0 C-1.51376081 3.56764285 -3.60513129 5.83706287 -6.3515625 8.546875 C-7.20234375 9.39121094 -8.053125 10.23554688 -8.9296875 11.10546875 C-9.81914062 11.97816406 -10.70859375 12.85085937 -11.625 13.75 C-12.5221875 14.63816406 -13.419375 15.52632812 -14.34375 16.44140625 C-16.55807004 18.63216969 -18.77692435 20.81812763 -21 23 C-25.18833314 21.36104928 -28.93776046 19.386438 -32.81640625 17.12109375 C-39.90891941 13.47967823 -49.60751946 14.01915483 -57.21875 15.71875 C-64.23161798 18.10774898 -69.49345998 21.02743389 -73.16015625 27.66796875 C-74.07087891 29.31732422 -74.07087891 29.31732422 -75 31 C-73.86438629 30.99555878 -72.72877258 30.99111755 -71.55874634 30.98654175 C-60.87546025 30.94606167 -50.19218965 30.91604741 -39.50884438 30.89637566 C-34.01595497 30.88592237 -28.5231273 30.87173507 -23.03027344 30.84912109 C-17.73294846 30.8274477 -12.43568299 30.81544302 -7.13831711 30.81024551 C-5.11363157 30.80653984 -3.08894941 30.79930396 -1.06428909 30.78853989 C1.76369102 30.77409806 4.59142276 30.77201898 7.41943359 30.77294922 C8.26316025 30.76575867 9.1068869 30.75856812 9.97618103 30.75115967 C15.77189568 30.77189568 15.77189568 30.77189568 18 33 C22.04988824 50.41971161 17.94120593 67.89491663 9 83 C-0.87909993 97.54702495 -14.89029681 107.69363357 -32 112 C-50.63112891 115.19756217 -68.0550069 112.04530169 -84 102 C-87.23316136 99.53004923 -90.18715102 96.93786449 -93 94 C-88.61557474 88.74825074 -83.99157907 83.86777527 -79.125 79.0625 C-78.43664062 78.37865234 -77.74828125 77.69480469 -77.0390625 76.99023438 C-75.36166489 75.32448536 -73.68196209 73.6611378 -72 72 C-68.37684098 73.38970483 -65.15495532 75.00078169 -61.84375 77 C-54.45580026 81.00702359 -46.21536027 81.13334757 -38 80 C-28.11060497 76.79639316 -22.69630157 71.54445235 -17 63 C-38.45 63.33 -59.9 63.66 -82 64 C-83.98 69.445 -83.98 69.445 -86 75 C-95.70334005 93.14506036 -110.06012131 105.0531411 -129.625 111.125 C-146.83186705 115.5860396 -163.46250529 112.94644977 -178.890625 104.3984375 C-185.18498437 100.54797744 -190.65824503 96.07796461 -196 91 C-197.4540625 92.2684375 -197.4540625 92.2684375 -198.9375 93.5625 C-200.2893004 94.71112399 -201.64364856 95.85675368 -203 97 C-203.68707031 97.5878125 -204.37414062 98.175625 -205.08203125 98.78125 C-218.48885504 109.79658631 -234.89854619 113.81742798 -252 113 C-264.97007227 111.71583443 -276.48079662 106.53310693 -287 99 C-287.63421875 98.55140625 -288.2684375 98.1028125 -288.921875 97.640625 C-301.71277659 87.66606871 -309.21878393 71.663792 -312 56 C-312.38767523 50.20798279 -312.35186513 44.44266259 -312.29296875 38.640625 C-312.28735996 36.99868155 -312.28309595 35.35673302 -312.28010559 33.71478271 C-312.2687576 29.43385479 -312.23937948 25.15324171 -312.20599365 20.87243652 C-312.17507364 16.48791765 -312.16155382 12.10334693 -312.14648438 7.71875 C-312.11449802 -0.8543097 -312.0634265 -9.42711547 -312 -18 C-310.56031626 -18.02583722 -309.12049831 -18.0442678 -307.68066406 -18.05957031 C-306.87888733 -18.07062805 -306.0771106 -18.08168579 -305.2510376 -18.09307861 C-299.00840067 -17.83495054 -292.36354905 -13.23887622 -288 -9 C-281.2398735 -1.26544086 -279.55990402 7.1437899 -279.55859375 17.1875 C-279.54538589 18.13004639 -279.53217804 19.07259277 -279.51856995 20.04370117 C-279.4780133 23.02916472 -279.4561061 26.01432517 -279.4375 29 C-279.41357863 31.98558085 -279.3852547 34.9708821 -279.34571838 37.95629883 C-279.3216892 39.80499539 -279.30656561 41.6538382 -279.30210876 43.50268555 C-279.17196136 54.37768208 -276.92798268 63.69392275 -269.28515625 71.82421875 C-262.00711412 77.93285031 -251.75524566 80.78889582 -242.3359375 80.31640625 C-232.53889852 78.98938258 -224.48822365 73.87846942 -218.41094971 66.09822083 C-212.3116277 57.0279298 -212.39638325 46.88562569 -212.390625 36.39453125 C-212.37561373 34.8183983 -212.3588805 33.24228091 -212.34051514 31.66618347 C-212.2971593 27.55470993 -212.27691387 23.44344843 -212.26177979 19.33178711 C-212.24209295 15.12145613 -212.20013671 10.91135039 -212.16015625 6.70117188 C-212.08519912 -1.53249259 -212.03470006 -9.76606782 -212 -18 C-202.1431173 -18.10074645 -196.01706517 -15.62675461 -188.71875 -8.77734375 C-180.97916537 -0.77390964 -179.55740173 8.96801894 -179.62890625 19.6875 C-179.61153016 21.70573092 -179.59394572 23.72396005 -179.57617188 25.7421875 C-179.56610763 28.87535862 -179.56250458 32.00841493 -179.56420898 35.14160156 C-179.5606161 38.19890384 -179.53320194 41.25535149 -179.50390625 44.3125 C-179.51208878 45.23571045 -179.5202713 46.1589209 -179.52870178 47.11010742 C-179.42214939 56.5376148 -176.49093118 64.34292181 -169.9921875 71.24609375 C-162.29683282 78.02102365 -153.47022892 80.51133575 -143.37890625 80.3046875 C-133.69413808 79.43137892 -126.36791935 75.29657425 -120 68 C-118.3059031 65.429978 -117.05863868 62.88520179 -116 60 C-115.66355469 59.15566406 -115.32710937 58.31132813 -114.98046875 57.44140625 C-113.8944408 53.62949143 -113.47115465 49.98857161 -113.06347656 46.05541992 C-111.45079489 30.65832911 -107.88122669 18.28064156 -98 6 C-97.20142578 4.95779297 -97.20142578 4.95779297 -96.38671875 3.89453125 C-87.2082992 -7.43063082 -73.30989031 -15.37652011 -59 -18 C-58.04867187 -18.18175781 -58.04867187 -18.18175781 -57.078125 -18.3671875 C-35.42980817 -21.70395814 -16.28579076 -13.9188754 0 0 Z " fill="#2592D7" transform="translate(312,19)"/>
<path d="M0 0 C1.43968374 -0.02583722 2.87950169 -0.0442678 4.31933594 -0.05957031 C5.12111267 -0.07062805 5.9228894 -0.08168579 6.7489624 -0.09307861 C12.99159933 0.16504946 19.63645095 4.76112378 24 9 C30.7601265 16.73455914 32.44009598 25.1437899 32.44140625 35.1875 C32.45461411 36.13004639 32.46782196 37.07259277 32.48143005 38.04370117 C32.5219867 41.02916472 32.5438939 44.01432517 32.5625 47 C32.58642137 49.98558085 32.6147453 52.9708821 32.65428162 55.95629883 C32.6783108 57.80499539 32.69343439 59.6538382 32.69789124 61.50268555 C32.82803864 72.37768208 35.07201732 81.69392275 42.71484375 89.82421875 C49.99288588 95.93285031 60.24475434 98.78889582 69.6640625 98.31640625 C79.46110148 96.98938258 87.51177635 91.87846942 93.58905029 84.09822083 C99.6883723 75.0279298 99.60361675 64.88562569 99.609375 54.39453125 C99.62438627 52.8183983 99.6411195 51.24228091 99.65948486 49.66618347 C99.7028407 45.55470993 99.72308613 41.44344843 99.73822021 37.33178711 C99.75790705 33.12145613 99.79986329 28.91135039 99.83984375 24.70117188 C99.91480088 16.46750741 99.96529994 8.23393218 100 0 C109.86563841 -0.10083594 115.95010947 2.38573804 123.27734375 9.203125 C128.3978236 14.54421509 131.23107402 20.1283706 131.29052734 27.51782227 C131.30328705 28.59987442 131.31604675 29.68192657 131.32919312 30.79676819 C131.33141876 31.95824875 131.33364441 33.11972931 131.3359375 34.31640625 C131.3459227 36.12757179 131.3459227 36.12757179 131.35610962 37.97532654 C131.36623042 40.5314685 131.37092682 43.08763685 131.37060547 45.64379883 C131.37495689 49.52405378 131.41122498 53.40315095 131.44921875 57.28320312 C131.45509158 59.77343364 131.45905785 62.26366952 131.4609375 64.75390625 C131.47530853 65.90121719 131.48967957 67.04852814 131.50448608 68.23060608 C131.40727759 85.67332683 122.97957301 102.10471392 110.6875 114.29296875 C96.30389545 126.52376406 78.66437945 131.89213386 60 131 C47.02992773 129.71583443 35.51920338 124.53310693 25 117 C24.36578125 116.55140625 23.7315625 116.1028125 23.078125 115.640625 C10.28722341 105.66606871 2.78121607 89.663792 0 74 C-0.38767523 68.20798279 -0.35186513 62.44266259 -0.29296875 56.640625 C-0.28735996 54.99868155 -0.28309595 53.35673302 -0.28010559 51.71478271 C-0.2687576 47.43385479 -0.23937948 43.15324171 -0.20599365 38.87243652 C-0.17507364 34.48791765 -0.16155382 30.10334693 -0.14648438 25.71875 C-0.11449802 17.1456903 -0.0634265 8.57288453 0 0 Z " fill="#2593D7" transform="translate(0,1)"/>
<path d="M0 0 C12.09113635 -0.0462659 24.18225177 -0.08183989 36.27345848 -0.10362434 C41.8874155 -0.11407784 47.50131212 -0.12826553 53.11523438 -0.15087891 C58.52926861 -0.17255154 63.94324462 -0.18455681 69.35731888 -0.18975449 C71.4266616 -0.1934603 73.49600101 -0.20069644 75.56531906 -0.21146011 C78.45556365 -0.22590091 81.3455652 -0.22798106 84.23583984 -0.22705078 C85.09826797 -0.23424133 85.96069611 -0.24143188 86.84925842 -0.24884033 C92.77189568 -0.22810432 92.77189568 -0.22810432 95 2 C99.04988824 19.41971161 94.94120593 36.89491663 86 52 C76.12090007 66.54702495 62.10970319 76.69363357 45 81 C26.36887109 84.19756217 8.9449931 81.04530169 -7 71 C-10.23316136 68.53004923 -13.18715102 65.93786449 -16 63 C-11.61557474 57.74825074 -6.99157907 52.86777527 -2.125 48.0625 C-1.43664062 47.37865234 -0.74828125 46.69480469 -0.0390625 45.99023438 C1.63833511 44.32448536 3.31803791 42.6611378 5 41 C8.62315902 42.38970483 11.84504468 44.00078169 15.15625 46 C22.54419974 50.00702359 30.78463973 50.13334757 39 49 C48.88939503 45.79639316 54.30369843 40.54445235 60 32 C38.22 32.33 16.44 32.66 -6 33 C-3.52941176 7.05882353 -3.52941176 7.05882353 0 0 Z " fill="#86CA9C" transform="translate(235,50)"/>
<path d="M0 0 C8.55232911 -0.32718794 13.72396736 2.14931157 20.8125 6.875 C26.44626886 12.34780404 29.99223739 18.06729514 30.4375 26 C30.38895038 29.61424931 30.09656412 31.550503 27.5 34.125 C26.2625 35.053125 26.2625 35.053125 25 36 C23.515 35.505 23.515 35.505 22 35 C20.7934375 35.2475 20.7934375 35.2475 19.5625 35.5 C16.89501402 36.02048507 15.56099616 35.7064817 13 35 C12.01 35.495 12.01 35.495 11 36 C10.01 35.67 9.02 35.34 8 35 C7.154375 35.185625 6.30875 35.37125 5.4375 35.5625 C4.633125 35.706875 3.82875 35.85125 3 36 C-0.05293168 32.94706832 0.03480646 29.990225 -0.11352539 25.77026367 C-0.10828857 24.58150635 -0.10305176 23.39274902 -0.09765625 22.16796875 C-0.09443359 20.87568359 -0.09121094 19.58339844 -0.08789062 18.25195312 C-0.07953665 16.89713474 -0.07107172 15.54231703 -0.0625 14.1875 C-0.05748 12.81315265 -0.05291797 11.43880355 -0.04882812 10.06445312 C-0.03705668 6.70959076 -0.02061283 3.35481779 0 0 Z " fill="#37A4DF" transform="translate(1,1)"/>
<path d="M0 0 C0.33 0 0.66 0 1 0 C1.00364563 0.55408539 1.00729126 1.10817078 1.01104736 1.67904663 C1.05311755 7.48778027 1.12263156 13.29574168 1.20751953 19.10400391 C1.2356063 21.26668545 1.25688148 23.4294673 1.27099609 25.59228516 C1.29259638 28.71568707 1.33933393 31.83789843 1.390625 34.9609375 C1.39185364 35.91551849 1.39308228 36.87009949 1.39434814 37.85360718 C1.5754318 46.3041469 3.83783769 53.9828008 9.25 60.625 C10.03117187 61.60339844 10.03117187 61.60339844 10.828125 62.6015625 C11.21484375 63.06304687 11.6015625 63.52453125 12 64 C11.50628906 64.81984375 11.01257813 65.6396875 10.50390625 66.484375 C9.86324219 67.56203125 9.22257812 68.6396875 8.5625 69.75 C7.92441406 70.81734375 7.28632813 71.8846875 6.62890625 72.984375 C5.30526901 75.43484971 4.46702949 77.28991337 4 80 C3.34 80 2.68 80 2 80 C2 81.32 2 82.64 2 84 C1.34 84 0.68 84 0 84 C-0.66 86.64 -1.32 89.28 -2 92 C-6.94515667 89.37288552 -10.87775489 85.73354706 -15 82 C-13.75520939 78.60189863 -12.33557129 75.90187994 -10.1875 73 C-4.79591289 65.13726879 -0.96086979 55.45591332 -0.79467773 45.86425781 C-0.77473251 44.84350159 -0.75478729 43.82274536 -0.73423767 42.77105713 C-0.70916893 41.12868073 -0.70916893 41.12868073 -0.68359375 39.453125 C-0.6524221 37.76361725 -0.6524221 37.76361725 -0.62062073 36.03997803 C-0.55525667 32.44338051 -0.49630115 28.84671023 -0.4375 25.25 C-0.3943023 22.8111904 -0.3506876 20.37238816 -0.30664062 17.93359375 C-0.1995887 11.955806 -0.09779783 5.97794593 0 0 Z " fill="#1C6388" transform="translate(131,28)"/>
<path d="M0 0 C9.83724921 0 15.17952934 2.79314883 22.37109375 9.31640625 C25.16107552 12.20005647 25.98687179 13.61271792 26.125 17.6875 C26.08375 18.780625 26.0425 19.87375 26 21 C25.34 20.34 24.68 19.68 24 19 C23.01 19 22.02 19 21 19 C20.175 18.938125 19.35 18.87625 18.5 18.8125 C15.95740496 18.7189366 15.95740496 18.7189366 14.65625 20.44140625 C12.51039078 22.46074075 10.88372874 22.65296107 8 23.125 C5.19389055 23.60103642 2.70955563 24.09681479 0 25 C0 16.75 0 8.5 0 0 Z " fill="#43AAE0" transform="translate(101,1)"/>
<path d="M0 0 C8.36455827 -0.77449614 13.9564147 2.30427647 20.8125 6.875 C23.62666088 9.60875628 26.11526018 12.54330697 28 16 C28 16.99 28 17.98 28 19 C27.01 19.33 26.02 19.66 25 20 C25 19.34 25 18.68 25 18 C23.7315625 18.2475 23.7315625 18.2475 22.4375 18.5 C13.57746479 19.78873239 13.57746479 19.78873239 10 18 C9.67 18.66 9.34 19.32 9 20 C3 20 3 20 1 19 C-0.47311766 15.25698406 -0.1111279 11.20756276 -0.0625 7.25 C-0.05798828 6.55261719 -0.05347656 5.85523438 -0.04882812 5.13671875 C-0.0371002 3.42444197 -0.01916653 1.71220967 0 0 Z " fill="#49AADB" transform="translate(1,1)"/>
<path d="M0 0 C2.80980434 2.80980434 3.86727219 5.54127855 4.22705078 9.49536133 C4.21657715 10.3489624 4.20610352 11.20256348 4.1953125 12.08203125 C4.18886719 13.01337891 4.18242187 13.94472656 4.17578125 14.90429688 C4.15902344 15.86400391 4.14226562 16.82371094 4.125 17.8125 C4.11597656 18.79154297 4.10695312 19.77058594 4.09765625 20.77929688 C4.07417182 23.18645061 4.0413284 25.59309743 4 28 C3.01 28 2.02 28 1 28 C-0.5 26.13671875 -0.5 26.13671875 -2 23.6875 C-3.79936419 20.77759072 -5.49237044 18.33094021 -8 16 C-9.0209375 14.948125 -9.0209375 14.948125 -10.0625 13.875 C-11.86588042 11.94179513 -11.86588042 11.94179513 -14 11 C-15.67654729 11.27942455 -17.34608154 11.60828247 -19 12 C-19 12.66 -19 13.32 -19 14 C-19.99 14.495 -19.99 14.495 -21 15 C-21.46751788 17.35599235 -21.46751788 17.35599235 -21.625 20.0625 C-21.69976562 20.98160156 -21.77453125 21.90070312 -21.8515625 22.84765625 C-21.90054688 23.55792969 -21.94953125 24.26820312 -22 25 C-22.99 25 -23.98 25 -25 25 C-26 24 -26 24 -26.09765625 20.83984375 C-26.08025391 18.90818359 -26.08025391 18.90818359 -26.0625 16.9375 C-26.05347656 15.64714844 -26.04445313 14.35679688 -26.03515625 13.02734375 C-26.02355469 12.02832031 -26.01195313 11.02929688 -26 10 C-21.37659324 7.92418472 -16.88670733 6.38303038 -12 5 C-10.948125 4.4121875 -10.948125 4.4121875 -9.875 3.8125 C-7.31462805 2.70300549 -5.65982141 3.3700423 -3 4 C-2.34 3.67 -1.68 3.34 -1 3 C-0.67 2.01 -0.34 1.02 0 0 Z " fill="#33A3E0" transform="translate(127,16)"/>
<path d="M0 0 C0.33 0 0.66 0 1 0 C1.66 1.98 2.32 3.96 3 6 C3.928125 5.814375 4.85625 5.62875 5.8125 5.4375 C9 5 9 5 12 6 C12.61875 5.835 13.2375 5.67 13.875 5.5 C16.50883299 4.88027459 18.3792286 5.44825865 21 6 C21.66 5.67 22.32 5.34 23 5 C23.99 5.33 24.98 5.66 26 6 C27.32 4.68 28.64 3.36 30 2 C30.56540084 11.61181435 30.56540084 11.61181435 27 16 C26.34 16.33 25.68 16.66 25 17 C24.34 16.67 23.68 16.34 23 16 C22.67 16.66 22.34 17.32 22 18 C20.88625 17.4740625 20.88625 17.4740625 19.75 16.9375 C16.77299356 15.92261144 15.87632105 15.97936995 13 17 C10.875 17.6875 10.875 17.6875 9 18 C8.34 17.34 7.68 16.68 7 16 C6.01 16 5.02 16 4 16 C3.67 16.33 3.34 16.66 3 17 C2.01 17 1.02 17 0 17 C0 11.39 0 5.78 0 0 Z " fill="#2A9DDD" transform="translate(1,30)"/>
<path d="M0 0 C2.375 0.3125 2.375 0.3125 5 1 C5.66 1.99 6.32 2.98 7 4 C6.50628906 4.81984375 6.01257813 5.6396875 5.50390625 6.484375 C4.54291016 8.10085937 4.54291016 8.10085937 3.5625 9.75 C2.92441406 10.81734375 2.28632813 11.8846875 1.62890625 12.984375 C0.30526901 15.43484971 -0.53297051 17.28991337 -1 20 C-1.66 20 -2.32 20 -3 20 C-3 21.32 -3 22.64 -3 24 C-3.66 24 -4.32 24 -5 24 C-5.66 26.64 -6.32 29.28 -7 32 C-11.75413223 29.56198347 -11.75413223 29.56198347 -12.875 27 C-13 25 -13 25 -12 22 C-11.34 22 -10.68 22 -10 22 C-9.82984375 21.41992188 -9.6596875 20.83984375 -9.484375 20.2421875 C-7.92384526 15.21196928 -6.07669184 11.32659789 -3 7 C-0.96913691 3.68428781 -0.96913691 3.68428781 0 0 Z " fill="#1A6D99" transform="translate(136,88)"/>
<path d="M0 0 C2.91517292 1.07401108 4.77810176 1.77810176 7 4 C6.34 4 5.68 4 5 4 C4.566875 5.0828125 4.566875 5.0828125 4.125 6.1875 C3.08333333 8.79166667 2.04166667 11.39583333 1 14 C0.34 14 -0.32 14 -1 14 C-1.33 15.98 -1.66 17.96 -2 20 C-2.66 20 -3.32 20 -4 20 C-4.433125 21.3303125 -4.433125 21.3303125 -4.875 22.6875 C-5.83148748 25.50382424 -6.86798946 28.25083156 -8 31 C-10.475 30.01 -10.475 30.01 -13 29 C-12.53568952 22.93194237 -10.57079483 18.65132872 -7.625 13.375 C-7.22539062 12.63765625 -6.82578125 11.9003125 -6.4140625 11.140625 C-4.36173222 7.37351876 -2.24145217 3.65862839 0 0 Z " fill="#2081B7" transform="translate(142,92)"/>
<path d="M0 0 C7.62194403 -0.64867609 13.69234691 1.89051006 19.5625 6.75 C20.366875 7.4925 21.17125 8.235 22 9 C21.67 9.99 21.34 10.98 21 12 C14.07 12 7.14 12 0 12 C0 8.04 0 4.08 0 0 Z " fill="#4EABD9" transform="translate(101,1)"/>
<path d="M0 0 C3.27223515 1.71560507 6.01644002 4.06096913 8.81640625 6.453125 C11.05815193 8.31345551 11.05815193 8.31345551 14.9296875 9.01171875 C14.9296875 12.31171875 14.9296875 15.61171875 14.9296875 19.01171875 C13.9396875 19.01171875 12.9496875 19.01171875 11.9296875 19.01171875 C10.4296875 17.1484375 10.4296875 17.1484375 8.9296875 14.69921875 C7.13032331 11.78930947 5.43731706 9.34265896 2.9296875 7.01171875 C1.90875 5.95984375 1.90875 5.95984375 0.8671875 4.88671875 C-0.93619292 2.95351388 -0.93619292 2.95351388 -3.0703125 2.01171875 C-4.74685979 2.2911433 -6.41639404 2.62000122 -8.0703125 3.01171875 C-8.0703125 3.67171875 -8.0703125 4.33171875 -8.0703125 5.01171875 C-9.0603125 5.50671875 -9.0603125 5.50671875 -10.0703125 6.01171875 C-10.53783038 8.3677111 -10.53783038 8.3677111 -10.6953125 11.07421875 C-10.77007812 11.99332031 -10.84484375 12.91242187 -10.921875 13.859375 C-10.97085938 14.56964844 -11.01984375 15.27992187 -11.0703125 16.01171875 C-12.0603125 16.01171875 -13.0503125 16.01171875 -14.0703125 16.01171875 C-15.0703125 15.01171875 -15.0703125 15.01171875 -15.3828125 11.82421875 C-15.01167689 7.29636437 -14.02289542 5.43049897 -11.0703125 2.01171875 C-7.22450282 -0.72307924 -4.57122495 -1.59484959 0 0 Z " fill="#2A9DDD" transform="translate(116.0703125,24.98828125)"/>
<path d="M0 0 C1.32 0.66 2.64 1.32 4 2 C3.50628906 2.81984375 3.01257813 3.6396875 2.50390625 4.484375 C1.86324219 5.56203125 1.22257813 6.6396875 0.5625 7.75 C-0.07558594 8.81734375 -0.71367187 9.8846875 -1.37109375 10.984375 C-2.69473099 13.43484971 -3.53297051 15.28991337 -4 18 C-4.66 18 -5.32 18 -6 18 C-6 19.32 -6 20.64 -6 22 C-6.66 22 -7.32 22 -8 22 C-8.66 24.64 -9.32 27.28 -10 30 C-10.99 29.67 -11.98 29.34 -13 29 C-13.63934602 23.88523181 -11.40533547 20.32745622 -9 16 C-8.34 16 -7.68 16 -7 16 C-6.67 14.02 -6.34 12.04 -6 10 C-5.34 10 -4.68 10 -4 10 C-3.71125 9.0925 -3.4225 8.185 -3.125 7.25 C-2.23468224 4.67797092 -1.28505587 2.38653234 0 0 Z " fill="#1D78A9" transform="translate(139,90)"/>
<path d="M0 0 C1.32 0.66 2.64 1.32 4 2 C3.34 2 2.68 2 2 2 C1.566875 3.0828125 1.566875 3.0828125 1.125 4.1875 C0.08333333 6.79166667 -0.95833333 9.39583333 -2 12 C-2.66 12 -3.32 12 -4 12 C-4.33 13.98 -4.66 15.96 -5 18 C-5.66 18 -6.32 18 -7 18 C-7.28875 18.886875 -7.5775 19.77375 -7.875 20.6875 C-8.83148748 23.50382424 -9.86798946 26.25083156 -11 29 C-12.32 28.34 -13.64 27.68 -15 27 C-13.515 23.535 -13.515 23.535 -12 20 C-11.34 20 -10.68 20 -10 20 C-9.896875 19.46632813 -9.79375 18.93265625 -9.6875 18.3828125 C-8.80807928 15.33482022 -7.44300941 12.69858091 -6 9.875 C-5.46375 8.82054688 -4.9275 7.76609375 -4.375 6.6796875 C-3.92125 5.79539062 -3.4675 4.91109375 -3 4 C-2.67 3.34 -2.34 2.68 -2 2 C-1.34 2 -0.68 2 0 2 C0 1.34 0 0.68 0 0 Z " fill="#2389C5" transform="translate(145,94)"/>
<path d="M0 0 C2.27795022 2.27795022 3.05219877 3.93787293 4 7 C3.625 9.3125 3.625 9.3125 3 11 C0.8125 11.6875 0.8125 11.6875 -2 12 C-4.5 10.6875 -4.5 10.6875 -7 9 C-8.65369357 8.30177383 -10.31727014 7.62501395 -12 7 C-11.34 5.68 -10.68 4.36 -10 3 C-7.33333333 3 -4.66666667 3 -2 3 C-1.34 2.01 -0.68 1.02 0 0 Z " fill="#3BA1D6" transform="translate(127,16)"/>
</svg>
