<?xml version="1.0" encoding="UTF-8"?>
<svg version="1.1" xmlns="http://www.w3.org/2000/svg" width="167" height="47">
<path d="M0 0 C55.11 0 110.22 0 167 0 C167 15.51 167 31.02 167 47 C111.89 47 56.78 47 0 47 C0 31.49 0 15.98 0 0 Z " fill="#F9FAFA" transform="translate(0,0)"/>
<path d="M0 0 C5.6120674 2.89016522 8.79313827 6.42565535 11.11328125 12.265625 C12.00342584 14.35496838 12.00342584 14.35496838 15 16 C16.65549531 16.38499891 18.3222433 16.72793135 20 17 C20 15.68 20 14.36 20 13 C21.36125 13.495 21.36125 13.495 22.75 14 C26.07045807 15.19605723 26.07045807 15.19605723 30 15 C32.01495907 15.61998741 34.0187415 16.27954236 36 17 C32.68735796 19.20842803 32.16548604 19.19725756 28.4375 18.6875 C27.65246094 18.58824219 26.86742187 18.48898438 26.05859375 18.38671875 C24 18 24 18 22 17 C21.67 17.66 21.34 18.32 21 19 C19.02 18.67 17.04 18.34 15 18 C14.9175 18.598125 14.835 19.19625 14.75 19.8125 C14 22 14 22 12.4375 23.8125 C8.83471348 25.56770369 5.81660475 24.94032291 2 24 C1.278125 23.62875 0.55625 23.2575 -0.1875 22.875 C-2.77094157 21.62782131 -4.3110503 22.17263086 -7 23 C-7.99 23.66 -8.98 24.32 -10 25 C-13.1875 25.125 -13.1875 25.125 -16 25 C-15.505 23.515 -15.505 23.515 -15 22 C-13.15234375 21.26953125 -13.15234375 21.26953125 -10.9375 20.8125 C-10.20402344 20.65394531 -9.47054687 20.49539062 -8.71484375 20.33203125 C-8.14894531 20.22246094 -7.58304688 20.11289062 -7 20 C-7.40992188 19.54109375 -7.81984375 19.0821875 -8.2421875 18.609375 C-8.78101563 17.99578125 -9.31984375 17.3821875 -9.875 16.75 C-10.40867187 16.14671875 -10.94234375 15.5434375 -11.4921875 14.921875 C-13.58433236 12.25520331 -14.81882982 9.88320463 -15.5 6.5625 C-14.87737464 3.37154502 -13.49865555 1.81885646 -10.90234375 -0.10546875 C-7.15679296 -1.86672364 -3.83251924 -1.27102161 0 0 Z " fill="#313559" transform="translate(64,18)"/>
<path d="M0 0 C3.75 0.375 3.75 0.375 6.6875 2.4375 C8.75 5.375 8.75 5.375 9.4375 8.75 C8.52306952 13.57154255 6.18692656 16.00967608 2.75 19.375 C5.75259517 19.70718192 5.75259517 19.70718192 7.4375 17.875 C7.870625 17.38 8.30375 16.885 8.75 16.375 C9.08 18.025 9.41 19.675 9.75 21.375 C12.21800047 20.22326645 13.79783565 19.32716435 15.75 17.375 C15.75 18.695 15.75 20.015 15.75 21.375 C16.74 21.375 17.73 21.375 18.75 21.375 C18.75 23.025 18.75 24.675 18.75 26.375 C19.41 26.705 20.07 27.035 20.75 27.375 C20.15461426 27.43034912 19.55922852 27.48569824 18.94580078 27.54272461 C16.25512785 27.79518865 13.56507714 28.05376816 10.875 28.3125 C9.93785156 28.39951172 9.00070313 28.48652344 8.03515625 28.57617188 C6.69130859 28.70668945 6.69130859 28.70668945 5.3203125 28.83984375 C4.07918701 28.95767212 4.07918701 28.95767212 2.81298828 29.07788086 C0.6918334 29.27277363 0.6918334 29.27277363 -1.25 30.375 C-3.5829866 30.41522391 -5.91706666 30.41820247 -8.25 30.375 C-8.25 31.035 -8.25 31.695 -8.25 32.375 C-10.89 32.375 -13.53 32.375 -16.25 32.375 C-16.25 31.385 -16.25 30.395 -16.25 29.375 C-11.02487721 27.90829887 -6.6685766 27.14922598 -1.25 27.375 C-1.25 26.055 -1.25 24.735 -1.25 23.375 C-2.57 23.375 -3.89 23.375 -5.25 23.375 C-8.99903969 12.0832495 -8.99903969 12.0832495 -8.25 7.375 C-4.22120623 0.48706226 -4.22120623 0.48706226 0 0 Z " fill="#272A4E" transform="translate(121.25,13.625)"/>
<path d="M0 0 C4.36348693 2.35628294 7.6080954 5.40857161 11 9 C10.67 9.99 10.34 10.98 10 12 C7.69 11.67 5.38 11.34 3 11 C3 13.31 3 15.62 3 18 C1.35 18 -0.3 18 -2 18 C-2.33 15.69 -2.66 13.38 -3 11 C-3.99 10.67 -4.98 10.34 -6 10 C-6 10.99 -6 11.98 -6 13 C-5.01 13 -4.02 13 -3 13 C-3 13.99 -3 14.98 -3 16 C-6.81434921 14.50150567 -8.80790825 12.44471561 -11 9 C-11.5 5.875 -11.5 5.875 -11 3 C-7.9267344 -0.68791872 -4.55262859 -0.54945517 0 0 Z " fill="#F0F1F7" transform="translate(62,19)"/>
<path d="M0 0 C2.4375 1.625 2.4375 1.625 4 4 C4 8.88246706 2.22686854 11.46085386 -1 15 C-3.475 14.01 -3.475 14.01 -6 13 C-6 14.65 -6 16.3 -6 18 C-6.99 17.67 -7.98 17.34 -9 17 C-10.86686667 12.7571212 -10.66617212 6.85576519 -9.125 2.5625 C-6.75938037 -0.72308281 -3.76023513 -0.37602351 0 0 Z " fill="#F2F4F6" transform="translate(125,16)"/>
<path d="M0 0 C0.721875 0.804375 1.44375 1.60875 2.1875 2.4375 C5.02515689 5.02292072 6.27166147 5.68042813 10 6 C10 4.68 10 3.36 10 2 C10.9075 2.33 11.815 2.66 12.75 3 C16.07045807 4.19605723 16.07045807 4.19605723 20 4 C22.01495907 4.61998741 24.0187415 5.27954236 26 6 C22.68735796 8.20842803 22.16548604 8.19725756 18.4375 7.6875 C17.25994141 7.53861328 17.25994141 7.53861328 16.05859375 7.38671875 C14 7 14 7 12 6 C11.67 6.66 11.34 7.32 11 8 C8.03 7.505 8.03 7.505 5 7 C4.938125 7.598125 4.87625 8.19625 4.8125 8.8125 C4 11 4 11 2.0625 13 C-2.82850443 14.59706267 -6.54317583 12.1721609 -11 10 C-11 9.67 -11 9.34 -11 9 C-9.02 9 -7.04 9 -5 9 C-5 8.34 -5 7.68 -5 7 C-5.66 7 -6.32 7 -7 7 C-7 5.68 -7 4.36 -7 3 C-5.02 3 -3.04 3 -1 3 C-0.67 2.01 -0.34 1.02 0 0 Z " fill="#9196BC" transform="translate(74,29)"/>
<path d="M0 0 C2 2 2 2 2 5 C4.46800047 3.84826645 6.04783565 2.95216435 8 1 C8 2.32 8 3.64 8 5 C8.99 5 9.98 5 11 5 C11 6.65 11 8.3 11 10 C11.66 10.33 12.32 10.66 13 11 C10.06281233 11.19461488 7.12550068 11.38097593 4.1875 11.5625 C3.35412109 11.61857422 2.52074219 11.67464844 1.66210938 11.73242188 C0.85966797 11.78076172 0.05722656 11.82910156 -0.76953125 11.87890625 C-1.50792236 11.9260376 -2.24631348 11.97316895 -3.00708008 12.02172852 C-5 12 -5 12 -8 11 C-8 8.36 -8 5.72 -8 3 C-6.576875 3.0928125 -6.576875 3.0928125 -5.125 3.1875 C-3.578125 3.0946875 -3.578125 3.0946875 -2 3 C-1.34 2.01 -0.68 1.02 0 0 Z " fill="#414668" transform="translate(129,30)"/>
<path d="M0 0 C0.8125 1.625 0.8125 1.625 1 4 C-0.46818136 6.24609835 -2.15852858 8.02378677 -4 10 C-4.33 9.01 -4.66 8.02 -5 7 C-4.525625 6.566875 -4.05125 6.13375 -3.5625 5.6875 C-1.76313043 3.97690387 -1.76313043 3.97690387 -1 1 C-8.42951359 3.03073371 -13.5271936 5.20836352 -17.875 11.875 C-19.20046508 15.55684743 -19.50347224 18.11607132 -19 22 C-17.56338689 24.52006844 -17.56338689 24.52006844 -15 26 C-11.35278304 26.80765878 -11.35278304 26.80765878 -8 27 C-9.32 24.36 -10.64 21.72 -12 19 C-8.3558226 16.5705484 -6.28758728 16.83820425 -2 17 C-1.34 20.63 -0.68 24.26 0 28 C-3 25 -3 25 -3.9375 22.375 C-4.7498001 19.80875315 -4.7498001 19.80875315 -7.125 19.1875 C-8.053125 19.0946875 -8.053125 19.0946875 -9 19 C-8.34 19.99 -7.68 20.98 -7 22 C-6.875 25.1875 -6.875 25.1875 -7 28 C-11.38868553 29.05328453 -13.32310149 29.36351957 -17.375 27.1875 C-20.07682731 24.93597724 -20.8643052 24.23682477 -21.23828125 20.828125 C-21.40718315 14.96100633 -21.04631675 11.56507531 -17 7 C-11.89939603 1.97191646 -7.47604592 -2.13601312 0 0 Z " fill="#363C57" transform="translate(36,9)"/>
<path d="M0 0 C1.88391785 3.26545761 2.49287967 6.28111761 3 10 C4.32 10 5.64 10 7 10 C7 11.32 7 12.64 7 14 C2.545 14.495 2.545 14.495 -2 15 C-1.67 14.01 -1.34 13.02 -1 12 C-2.32 12 -3.64 12 -5 12 C-5.33 12.66 -5.66 13.32 -6 14 C-6.12375 13.071875 -6.12375 13.071875 -6.25 12.125 C-6.78131326 9.82530563 -6.78131326 9.82530563 -8.9375 9.0625 C-11 8 -11 8 -12.25 5.375 C-12.4975 4.59125 -12.745 3.8075 -13 3 C-9.625 3.3125 -9.625 3.3125 -6 4 C-5.01 5.485 -5.01 5.485 -4 7 C-2.68 7 -1.36 7 0 7 C0 4.69 0 2.38 0 0 Z " fill="#DCDFEC" transform="translate(113,27)"/>
<path d="M0 0 C0.33 0.99 0.66 1.98 1 3 C1.9075 2.79375 2.815 2.5875 3.75 2.375 C7.29681455 1.96575217 8.0212585 2.32445791 11 4 C12.546875 4.185625 12.546875 4.185625 14.125 4.375 C17 5 17 5 18.375 7.0625 C18.58125 7.701875 18.7875 8.34125 19 9 C18.0925 8.67 17.185 8.34 16.25 8 C12.92954193 6.80394277 12.92954193 6.80394277 9 7 C8.01 6.34 7.02 5.68 6 5 C6 6.32 6 7.64 6 9 C3.625 9.125 3.625 9.125 1 9 C0.34 8.34 -0.32 7.68 -1 7 C-1.99 7.495 -1.99 7.495 -3 8 C-3.33 6.02 -3.66 4.04 -4 2 C-3.01 2 -2.02 2 -1 2 C-0.67 1.34 -0.34 0.68 0 0 Z " fill="#ECEDF4" transform="translate(78,26)"/>
<path d="M0 0 C0.9075 0.33 1.815 0.66 2.75 1 C6.07045807 2.19605723 6.07045807 2.19605723 10 2 C12.01495907 2.61998741 14.0187415 3.27954236 16 4 C12.68735796 6.20842803 12.16548604 6.19725756 8.4375 5.6875 C7.25994141 5.53861328 7.25994141 5.53861328 6.05859375 5.38671875 C4 5 4 5 2 4 C1.67 4.66 1.34 5.32 1 6 C-1.97 5.505 -1.97 5.505 -5 5 C-5.0825 5.61875 -5.165 6.2375 -5.25 6.875 C-6 9 -6 9 -8.0625 10.25 C-8.701875 10.4975 -9.34125 10.745 -10 11 C-10.99 10.01 -11.98 9.02 -13 8 C-11.68 8 -10.36 8 -9 8 C-8.31292445 5.50935112 -8 3.62113708 -8 1 C-7.01 1.66 -6.02 2.32 -5 3 C-3.34450469 3.38499891 -1.6777567 3.72793135 0 4 C0 2.68 0 1.36 0 0 Z " fill="#292D50" transform="translate(84,31)"/>
<path d="M0 0 C1.32 0.33 2.64 0.66 4 1 C3.9175 2.051875 3.835 3.10375 3.75 4.1875 C3.86997125 6.18087618 3.86997125 6.18087618 5 8 C8.81843654 10.20063961 12.81982854 11.63182925 17 13 C13.59634387 14.13206943 13.1075009 14.04690948 9.5625 12.5 C5.87595494 10.9477705 4.66767207 10.67556286 1 12 C0.01 12.66 -0.98 13.32 -2 14 C-5.1875 14.125 -5.1875 14.125 -8 14 C-7.67 13.01 -7.34 12.02 -7 11 C-5.22265625 10.48046875 -5.22265625 10.48046875 -3.0625 10.1875 C-0.89516512 9.80636514 -0.89516512 9.80636514 1 9 C2.61147442 6.00571856 2.61147442 6.00571856 3 3 C2.01 3 1.02 3 0 3 C0 2.01 0 1.02 0 0 Z " fill="#2F3454" transform="translate(56,29)"/>
<path d="M0 0 C3.75 0.375 3.75 0.375 6.6875 2.4375 C8.75 5.375 8.75 5.375 9.4375 8.75 C8.52306952 13.57154255 6.18692656 16.00967608 2.75 19.375 C1.76 19.045 0.77 18.715 -0.25 18.375 C0.75 16.375 0.75 16.375 2.6875 15.5 C5.28605294 14.08260749 5.88786581 13.19653009 6.75 10.375 C6.5993707 7.21874353 6.5993707 7.21874353 5.75 4.375 C3.01094655 3.00547327 0.77912668 3.24878639 -2.25 3.375 C-4.44117773 4.19701984 -4.44117773 4.19701984 -5.1015625 6.44140625 C-5.35679688 7.26511719 -5.61203125 8.08882812 -5.875 8.9375 C-6.13539062 9.76378906 -6.39578125 10.59007812 -6.6640625 11.44140625 C-6.85742188 12.07949219 -7.05078125 12.71757812 -7.25 13.375 C-7.58 13.375 -7.91 13.375 -8.25 13.375 C-8.75477602 8.07485182 -7.45817314 5.55534682 -4.25 1.375 C-3.25 0.375 -3.25 0.375 0 0 Z " fill="#404560" transform="translate(121.25,13.625)"/>
<path d="M0 0 C5.53846154 -0.12587413 5.53846154 -0.12587413 8.0625 0.5625 C10.59168692 1.13360672 12.51188197 0.62202951 15 0 C15.33 0.99 15.66 1.98 16 3 C12.53777385 4.06723961 9.35960734 4.10173486 5.75 4.0625 C4.67234375 4.05347656 3.5946875 4.04445313 2.484375 4.03515625 C1.66453125 4.02355469 0.8446875 4.01195312 0 4 C0 2.68 0 1.36 0 0 Z " fill="#D1D3EA" transform="translate(122,36)"/>
<path d="M0 0 C0.66 3.63 1.32 7.26 2 11 C-1 8 -1 8 -1.875 5.375 C-2.431875 4.199375 -2.431875 4.199375 -3 3 C-5.54775306 2.10613836 -5.54775306 2.10613836 -8 2 C-8.33 2.66 -8.66 3.32 -9 4 C-9 3.01 -9 2.02 -9 1 C-6.04335481 -0.4783226 -3.25770263 -0.06032783 0 0 Z " fill="#343A56" transform="translate(34,26)"/>
<path d="M0 0 C0.99 0 1.98 0 3 0 C3 0.66 3 1.32 3 2 C2.34 2 1.68 2 1 2 C1 2.66 1 3.32 1 4 C2.32 3.67 3.64 3.34 5 3 C5 4.98 5 6.96 5 9 C3.35 9 1.7 9 0 9 C-0.87890625 2.84765625 -0.87890625 2.84765625 -1 1 C-0.67 0.67 -0.34 0.34 0 0 Z " fill="#D7D6E6" transform="translate(60,28)"/>
<path d="M0 0 C3.375 0.3125 3.375 0.3125 7 1 C7.66 1.99 8.32 2.98 9 4 C11.56282742 4.72965366 11.56282742 4.72965366 14 5 C13.34 5.66 12.68 6.32 12 7 C10.125 6.625 10.125 6.625 8 6 C6.68 6 5.36 6 4 6 C1.75 4.125 1.75 4.125 0 2 C0 1.34 0 0.68 0 0 Z " fill="#30334F" transform="translate(100,30)"/>
<path d="M0 0 C1.98 0 3.96 0 6 0 C6 0.66 6 1.32 6 2 C6.99 2 7.98 2 9 2 C9 2.99 9 3.98 9 5 C6.625 5.125 6.625 5.125 4 5 C3.34 4.34 2.68 3.68 2 3 C1.01 3.495 1.01 3.495 0 4 C0 2.68 0 1.36 0 0 Z " fill="#D9D8ED" transform="translate(75,30)"/>
<path d="M0 0 C2.3431213 0.25561323 4.67843403 0.59270772 7 1 C7.33 1.66 7.66 2.32 8 3 C5.16730334 4.41634833 2.52533562 4.3463005 -0.625 4.5625 C-1.81351562 4.64628906 -3.00203125 4.73007812 -4.2265625 4.81640625 C-5.14179687 4.87699219 -6.05703125 4.93757813 -7 5 C-7 4.01 -7 3.02 -7 2 C-4.03 2.495 -4.03 2.495 -1 3 C-0.67 2.01 -0.34 1.02 0 0 Z " fill="#C6CCDF" transform="translate(86,34)"/>
<path d="M0 0 C0.99 0.495 0.99 0.495 2 1 C2.2475 2.0725 2.495 3.145 2.75 4.25 C4.32685706 8.98057118 6.02958429 10.1516583 10 13 C9.34 13.66 8.68 14.32 8 15 C3.92704325 12.13792229 1.80612182 9.6578931 0 5 C-0.1875 2.125 -0.1875 2.125 0 0 Z " fill="#4F5472" transform="translate(49,22)"/>
<path d="M0 0 C0.66 0.66 1.32 1.32 2 2 C-1.83325617 4.70582788 -4.32538149 5.32613618 -9 5 C-8.67 4.01 -8.34 3.02 -8 2 C-6.22265625 1.19921875 -6.22265625 1.19921875 -4.0625 0.6875 C-3.35222656 0.50574219 -2.64195313 0.32398438 -1.91015625 0.13671875 C-0.96462891 0.06904297 -0.96462891 0.06904297 0 0 Z " fill="#3B4164" transform="translate(57,38)"/>
<path d="M0 0 C1.65 1.32 3.3 2.64 5 4 C4.34 4 3.68 4 3 4 C2.9175 4.61875 2.835 5.2375 2.75 5.875 C2 8 2 8 -0.0625 9.25 C-0.701875 9.4975 -1.34125 9.745 -2 10 C-2.99 9.01 -3.98 8.02 -5 7 C-3.68 7 -2.36 7 -1 7 C-0.31292445 4.50935112 0 2.62113708 0 0 Z " fill="#1C204D" transform="translate(76,32)"/>
<path d="M0 0 C1.67542976 0.28604898 3.34385343 0.61781233 5 1 C3 2 1 3 -1 4 C-1.90725434 6.11327425 -1.90725434 6.11327425 -2.625 8.5625 C-2.88539062 9.38878906 -3.14578125 10.21507812 -3.4140625 11.06640625 C-3.60742188 11.70449219 -3.80078125 12.34257812 -4 13 C-4.33 13 -4.66 13 -5 13 C-5.50477602 7.69985182 -4.20817314 5.18034682 -1 1 C-0.67 0.67 -0.34 0.34 0 0 Z " fill="#4D546C" transform="translate(118,14)"/>
<path d="M0 0 C0 0.99 0 1.98 0 3 C-2.64 3 -5.28 3 -8 3 C-8 2.01 -8 1.02 -8 0 C-5.13822943 -1.43088528 -3.06624227 -0.59991697 0 0 Z " fill="#303354" transform="translate(113,43)"/>
<path d="M0 0 C1.6260287 0.06000106 3.25101549 0.1487885 4.875 0.25 C6.23238281 0.31960937 6.23238281 0.31960937 7.6171875 0.390625 C10 1 10 1 11.3203125 3.046875 C11.54460937 3.69140625 11.76890625 4.3359375 12 5 C11.0925 4.67 10.185 4.34 9.25 4 C5.92954193 2.80394277 5.92954193 2.80394277 2 3 C1.34 2.01 0.68 1.02 0 0 Z " fill="#D7D6E8" transform="translate(85,30)"/>
<path d="M0 0 C1.98 0 3.96 0 6 0 C6 1.32 6 2.64 6 4 C4.02 4 2.04 4 0 4 C0 2.68 0 1.36 0 0 Z " fill="#E5E7F6" transform="translate(122,36)"/>
<path d="M0 0 C4.02992782 0.55312735 8.02022924 1.1558062 12 2 C11.01 3.485 11.01 3.485 10 5 C5.05 3.02 5.05 3.02 0 1 C0 0.67 0 0.34 0 0 Z " fill="#C2C7DC" transform="translate(63,38)"/>
<path d="M0 0 C1.5 1.125 1.5 1.125 3 3 C3.1875 6.1875 3.1875 6.1875 3 9 C0.69 9.33 -1.62 9.66 -4 10 C-3.67 9.34 -3.34 8.68 -3 8 C-1.35 8 0.3 8 2 8 C1.67 7.4225 1.34 6.845 1 6.25 C0 4 0 4 0 0 Z " fill="#454D69" transform="translate(26,28)"/>
<path d="M0 0 C5.75 3.625 5.75 3.625 8 7 C3.61031544 7 2.23094261 4.87194899 -1 2 C-0.67 1.34 -0.34 0.68 0 0 Z " fill="#4C516F" transform="translate(65,19)"/>
<path d="M0 0 C0.33 1.32 0.66 2.64 1 4 C1.99 4 2.98 4 4 4 C4 5.65 4 7.3 4 9 C3.34 9 2.68 9 2 9 C-1.11450382 4.84732824 -1.11450382 4.84732824 -0.6875 1.6875 C-0.460625 1.130625 -0.23375 0.57375 0 0 Z " fill="#1F2140" transform="translate(136,31)"/>
<path d="M0 0 C1.32 0.66 2.64 1.32 4 2 C2.75 4 2.75 4 1 6 C-0.32 6 -1.64 6 -3 6 C-3 5.34 -3 4.68 -3 4 C-2.01 4 -1.02 4 0 4 C0 2.68 0 1.36 0 0 Z " fill="#2F3258" transform="translate(84,31)"/>
<path d="M0 0 C2.475 0.495 2.475 0.495 5 1 C5 1.66 5 2.32 5 3 C4.34 3 3.68 3 3 3 C3 4.65 3 6.3 3 8 C2.67 8 2.34 8 2 8 C1.34 5.36 0.68 2.72 0 0 Z " fill="#DCE0ED" transform="translate(27,28)"/>
<path d="M0 0 C1.65 1.32 3.3 2.64 5 4 C4.34 5.98 3.68 7.96 3 10 C2.67 10 2.34 10 2 10 C1.855625 8.906875 1.71125 7.81375 1.5625 6.6875 C1.11711896 3.06877013 1.11711896 3.06877013 0 0 Z " fill="#3B3E57" transform="translate(141,15)"/>
<path d="M0 0 C-1.32 0.33 -2.64 0.66 -4 1 C-4 1.66 -4 2.32 -4 3 C-5.98 3 -7.96 3 -10 3 C-7.29536552 -0.8183075 -4.37912428 -0.24787496 0 0 Z " fill="#D6DCE5" transform="translate(62,19)"/>
</svg>
